<?xml version="1.0" encoding="utf-8"?>
<!-- Generator: Adobe Illustrator 27.0.1, SVG Export Plug-In . SVG Version: 6.00 Build 0)  -->
<svg version="1.1" id="Слой_1" xmlns="http://www.w3.org/2000/svg" xmlns:xlink="http://www.w3.org/1999/xlink" x="0px" y="0px"
	 viewBox="0 0 841.89 595.28" style="enable-background:new 0 0 841.89 595.28;" xml:space="preserve">
<style type="text/css">
	.st0{fill:#5080C1;}
	.st1{fill:#1E2345;}
	.st2{fill:#575657;}
</style>
<g>
	<path class="st0" d="M504.3,184.21v-31.32H337.58v99.69C358.75,228.63,408.78,187.46,504.3,184.21"/>
	<path class="st1" d="M373.94,319.6H504.3V186.62C473.11,194.69,391.46,224.66,373.94,319.6"/>
	<polygon class="st1" points="345.52,365.66 332.26,365.66 332.26,358.94 365.97,358.94 365.97,365.66 352.71,365.66 352.71,399.83 
		345.52,399.83 	"/>
	<path class="st1" d="M391.15,358.82h-6.31l-17.29,41.01h7.24l4.26-10.46h17.47l4.27,10.46h7.65L391.15,358.82z M381.8,382.66
		l6.02-14.55l5.96,14.55H381.8z"/>
	<path class="st1" d="M449.68,399.83h-7.13v-34.18h-11.92l-0.82,7.71c-0.47,4.67-1.07,8.67-1.81,11.98
		c-0.74,3.31-1.56,5.96-2.45,7.95c-0.9,1.99-1.96,3.51-3.18,4.56c-1.23,1.05-2.49,1.7-3.8,1.96c-1.31,0.25-2.81,0.26-4.53,0.03
		l0.18-7.13c0.86,0.12,1.56,0.08,2.1-0.12c0.54-0.19,1.19-0.74,1.93-1.64c0.82-1.01,1.48-2.36,1.99-4.03
		c1.4-4.17,2.43-10.77,3.1-19.8l0.58-8.18h25.76V399.83z"/>
	<path class="st1" d="M498.7,364.14c-4.01-3.89-9.09-5.84-15.25-5.84c-6.15,0-11.26,2.03-15.31,6.08
		c-3.97,4.05-5.96,9.06-5.96,15.01c0,6.27,2.01,11.35,6.02,15.25c4.01,3.89,9.09,5.84,15.25,5.84c6.11,0,11.2-1.99,15.25-5.96
		c4.05-3.97,6.08-9.02,6.08-15.13C504.78,373.16,502.75,368.07,498.7,364.14z M493.44,389.67c-2.45,2.73-5.78,4.09-9.99,4.09
		c-3.9,0-7.15-1.36-9.76-4.09c-2.61-2.73-3.91-6.15-3.91-10.28c0-4.21,1.29-7.65,3.86-10.34c2.61-2.69,5.88-4.03,9.81-4.03
		c3.86,0,7.11,1.34,9.76,4.03c2.65,2.73,3.97,6.17,3.97,10.34C497.18,383.52,495.93,386.94,493.44,389.67z"/>
	<polygon class="st1" points="550.29,399.83 543.16,399.83 543.16,382.37 524.46,382.37 524.46,399.83 517.28,399.83 517.28,358.94 
		524.46,358.94 524.46,375.65 543.16,375.65 543.16,358.94 550.29,358.94 	"/>
	<path class="st2" d="M300.14,418.09h-9.58v-1.92h21.19v1.92h-9.58v23.96h-2.03V418.09z M322.55,431.81c-1.7,0-3.13-0.05-4.29-0.15
		v10.39h-2.03v-25.88c1.01,0,2.06-0.01,3.14-0.04c1.08-0.02,2.14-0.04,3.18-0.04c1.73,0,3.21,0.22,4.46,0.67
		c1.24,0.44,2.2,1.05,2.87,1.81c0.67,0.76,1.15,1.58,1.44,2.46c0.3,0.88,0.44,1.83,0.44,2.87c0,2.24-0.78,4.12-2.33,5.62
		C327.85,431.05,325.56,431.81,322.55,431.81L322.55,431.81z M322.74,418.02c-0.81,0-2.31,0.02-4.47,0.07v11.61
		c1.77,0.12,3.18,0.18,4.22,0.18c2.27,0,4.02-0.54,5.27-1.63c1.24-1.08,1.87-2.55,1.87-4.4c0-1.82-0.57-3.25-1.72-4.29
		C326.75,418.54,325.03,418.02,322.74,418.02z M334.24,442.05h-2.07l11.28-26.11h1.66l11.28,26.11h-2.18l-3.77-8.8h-12.42
		L334.24,442.05z M349.58,431.33l-5.36-12.57l-5.4,12.57H349.58z M381.49,442.05h-2.03v-12.24H363.3v12.24h-2.03v-25.88h2.03v11.72
		h16.16v-11.72h2.03V442.05z M400.72,440.46c2.71,0,5.07-0.81,7.06-2.44l0.81,1.52c-0.89,0.89-2.05,1.58-3.49,2.09
		c-1.44,0.5-2.95,0.76-4.53,0.76c-3.85,0-6.98-1.21-9.39-3.62c-2.39-2.39-3.59-5.61-3.59-9.65c0-3.82,1.16-6.98,3.48-9.47
		c2.32-2.54,5.39-3.81,9.21-3.81c3.28,0,5.89,0.81,7.84,2.44l-0.96,1.52c-1.75-1.36-4.03-2.03-6.84-2.03
		c-3.16,0-5.71,1.07-7.65,3.22c-1.95,2.1-2.92,4.81-2.92,8.13c0,3.38,1.01,6.11,3.03,8.21
		C394.79,439.42,397.44,440.46,400.72,440.46L400.72,440.46z M424.01,440.46c2.71,0,5.07-0.81,7.06-2.44l0.81,1.52
		c-0.89,0.89-2.05,1.58-3.49,2.09c-1.44,0.5-2.95,0.76-4.53,0.76c-3.85,0-6.98-1.21-9.39-3.62c-2.39-2.39-3.59-5.61-3.59-9.65
		c0-3.82,1.16-6.98,3.48-9.47c2.32-2.54,5.39-3.81,9.21-3.81c3.28,0,5.89,0.81,7.84,2.44l-0.96,1.52c-1.75-1.36-4.03-2.03-6.84-2.03
		c-3.16,0-5.71,1.07-7.65,3.22c-1.95,2.1-2.92,4.81-2.92,8.13c0,3.38,1.01,6.11,3.03,8.21
		C418.09,439.42,420.74,440.46,424.01,440.46L424.01,440.46z M451.93,442.05h-14.68v-25.88h14.31v1.92h-12.28v9.87h11.17v1.92
		h-11.17v10.24h12.65V442.05z M464.84,431.81c-1.7,0-3.13-0.05-4.29-0.15v10.39h-2.03v-25.88c1.01,0,2.06-0.01,3.14-0.04
		c1.08-0.02,2.14-0.04,3.18-0.04c1.73,0,3.21,0.22,4.46,0.67c1.24,0.44,2.2,1.05,2.87,1.81c0.67,0.76,1.15,1.58,1.44,2.46
		c0.3,0.88,0.44,1.83,0.44,2.87c0,2.24-0.78,4.12-2.33,5.62C470.14,431.05,467.84,431.81,464.84,431.81L464.84,431.81z
		 M465.02,418.02c-0.81,0-2.31,0.02-4.47,0.07v11.61c1.77,0.12,3.18,0.18,4.22,0.18c2.27,0,4.02-0.54,5.27-1.63
		c1.24-1.08,1.87-2.55,1.87-4.4c0-1.82-0.57-3.25-1.72-4.29C469.03,418.54,467.31,418.02,465.02,418.02z M486.91,442.16
		c-2.71,0-4.97-0.05-6.77-0.15v-25.81c3.43-0.1,5.69-0.15,6.8-0.15c5.45,0,8.17,2.13,8.17,6.4c0,1.58-0.46,2.89-1.37,3.94
		c-0.91,1.05-2.13,1.76-3.66,2.13v0.07c1.92,0.22,3.41,0.87,4.46,1.94c1.05,1.07,1.57,2.5,1.57,4.27c0,2.42-0.82,4.25-2.46,5.49
		C492.02,441.54,489.77,442.16,486.91,442.16L486.91,442.16z M493.09,422.86c0-3.25-2.07-4.88-6.21-4.88c-1.06,0-2.63,0.04-4.7,0.11
		v9.84h5.03c1.7,0,3.09-0.46,4.18-1.37C492.52,425.65,493.09,424.42,493.09,422.86L493.09,422.86z M487.1,429.74h-4.92v10.35
		c2.46,0.1,4.07,0.15,4.81,0.15c2.29,0,4.05-0.47,5.27-1.41c1.22-0.94,1.83-2.32,1.83-4.14c0-1.58-0.6-2.8-1.81-3.66
		C491.06,430.17,489.34,429.74,487.1,429.74z M522.19,419.5l-17.42,22.56h-1.81v-25.88h2.03v22.56l17.42-22.56h1.81v25.88h-2.03
		V419.5z M543.45,440.46c2.71,0,5.07-0.81,7.06-2.44l0.81,1.52c-0.89,0.89-2.05,1.58-3.49,2.09s-2.95,0.76-4.53,0.76
		c-3.85,0-6.98-1.21-9.39-3.62c-2.39-2.39-3.59-5.61-3.59-9.65c0-3.82,1.16-6.98,3.48-9.47c2.32-2.54,5.39-3.81,9.21-3.81
		c3.28,0,5.89,0.81,7.84,2.44l-0.96,1.52c-1.75-1.36-4.03-2.03-6.84-2.03c-3.16,0-5.71,1.07-7.65,3.22
		c-1.95,2.1-2.92,4.81-2.92,8.13c0,3.38,1.01,6.11,3.03,8.21C537.52,439.42,540.17,440.46,543.45,440.46L543.45,440.46z"/>
	<g>
		<path class="st1" d="M304.45,365.02c3.89,0,7.15,0.93,9.76,2.8c0.48,0.34,0.89,0.74,1.31,1.13h8.95
			c-0.89-1.79-2.05-3.41-3.48-4.87c-3.82-3.86-8.76-5.78-14.84-5.78c-5.84,0-10.54,1.5-14.08,4.5l2.8,5.37
			C297.68,366.07,300.87,365.02,304.45,365.02z"/>
		<path class="st1" d="M319.17,375.63c0,0.01,0,0.01,0,0.02h-18.23v6.72h18.4c-0.58,3.58-2.15,6.38-4.7,8.38
			c-2.55,2.01-5.7,3.01-9.44,3.01c-3.93,0-7.44-1.19-10.52-3.56l-3.1,6.02c1.52,1.29,3.51,2.32,5.96,3.1
			c2.45,0.78,5.04,1.17,7.77,1.17c6.5,0,11.7-1.91,15.6-5.73c3.86-3.86,5.78-9,5.78-15.42c0-1.29-0.1-2.51-0.26-3.7H319.17z"/>
	</g>
</g>
</svg>
